<mxfile host="65bd71144e">
    <diagram id="3mBuW6wdLFbSz_ulmDaW" name="Page-1">
        <mxGraphModel dx="598" dy="349" grid="1" gridSize="10" guides="1" tooltips="1" connect="1" arrows="1" fold="1" page="1" pageScale="1" pageWidth="850" pageHeight="1100" background="#ffffff" math="0" shadow="0">
            <root>
                <mxCell id="0"/>
                <mxCell id="1" parent="0"/>
                <mxCell id="42" style="edgeStyle=none;html=1;entryX=0.926;entryY=0.01;entryDx=0;entryDy=0;entryPerimeter=0;dashed=1;" parent="1" source="25" target="30" edge="1">
                    <mxGeometry relative="1" as="geometry"/>
                </mxCell>
                <mxCell id="25" value="gRPC&lt;br&gt;Client 1" style="shape=umlActor;verticalLabelPosition=bottom;verticalAlign=top;html=1;outlineConnect=0;" parent="1" vertex="1">
                    <mxGeometry x="80" y="210" width="30" height="60" as="geometry"/>
                </mxCell>
                <mxCell id="41" style="edgeStyle=none;html=1;entryX=0.5;entryY=0;entryDx=0;entryDy=0;dashed=1;" parent="1" source="26" target="30" edge="1">
                    <mxGeometry relative="1" as="geometry"/>
                </mxCell>
                <mxCell id="26" value="gRPC&lt;br&gt;Client 2" style="shape=umlActor;verticalLabelPosition=bottom;verticalAlign=top;html=1;outlineConnect=0;" parent="1" vertex="1">
                    <mxGeometry x="80" y="310" width="30" height="60" as="geometry"/>
                </mxCell>
                <mxCell id="40" style="edgeStyle=none;html=1;entryX=0.074;entryY=-0.074;entryDx=0;entryDy=0;entryPerimeter=0;dashed=1;" parent="1" source="27" target="30" edge="1">
                    <mxGeometry relative="1" as="geometry"/>
                </mxCell>
                <mxCell id="27" value="gRPC&lt;br&gt;Client N" style="shape=umlActor;verticalLabelPosition=bottom;verticalAlign=top;html=1;outlineConnect=0;" parent="1" vertex="1">
                    <mxGeometry x="80" y="410" width="30" height="60" as="geometry"/>
                </mxCell>
                <mxCell id="39" value="" style="group" parent="1" vertex="1" connectable="0">
                    <mxGeometry x="252.5" y="200" width="130" height="280" as="geometry"/>
                </mxCell>
                <mxCell id="43" style="edgeStyle=none;html=1;exitX=0.75;exitY=1;exitDx=0;exitDy=0;entryX=0.75;entryY=0;entryDx=0;entryDy=0;" parent="39" edge="1">
                    <mxGeometry relative="1" as="geometry">
                        <mxPoint x="32.872340425531775" y="39.249999999999545" as="sourcePoint"/>
                        <mxPoint x="47.127659574468" y="39.250000000000455" as="targetPoint"/>
                    </mxGeometry>
                </mxCell>
                <mxCell id="44" style="edgeStyle=none;html=1;exitX=0.5;exitY=1;exitDx=0;exitDy=0;entryX=0.5;entryY=0;entryDx=0;entryDy=0;" parent="39" source="30" target="31" edge="1">
                    <mxGeometry relative="1" as="geometry"/>
                </mxCell>
                <mxCell id="30" value="gRPC Listener" style="rounded=0;whiteSpace=wrap;html=1;rotation=-90;" parent="39" vertex="1">
                    <mxGeometry x="-102.5" y="122.12765957446808" width="235" height="35.744680851063826" as="geometry"/>
                </mxCell>
                <mxCell id="46" style="edgeStyle=none;html=1;exitX=0.75;exitY=1;exitDx=0;exitDy=0;entryX=0.75;entryY=0;entryDx=0;entryDy=0;" parent="39" edge="1">
                    <mxGeometry relative="1" as="geometry">
                        <mxPoint x="82.872340425532" y="40.249999999999545" as="sourcePoint"/>
                        <mxPoint x="97.127659574468" y="40.250000000000455" as="targetPoint"/>
                    </mxGeometry>
                </mxCell>
                <mxCell id="47" style="edgeStyle=none;html=1;exitX=0.5;exitY=1;exitDx=0;exitDy=0;entryX=0.5;entryY=0;entryDx=0;entryDy=0;" parent="39" source="31" target="32" edge="1">
                    <mxGeometry relative="1" as="geometry"/>
                </mxCell>
                <mxCell id="31" value="Role Processor / Boundary" style="rounded=0;whiteSpace=wrap;html=1;rotation=-90;" parent="39" vertex="1">
                    <mxGeometry x="-52.5" y="122.12765957446808" width="235" height="35.744680851063826" as="geometry"/>
                </mxCell>
                <mxCell id="32" value="Processing Library" style="rounded=0;whiteSpace=wrap;html=1;rotation=-90;" parent="39" vertex="1">
                    <mxGeometry x="-2.5" y="122.12765957446808" width="235" height="35.744680851063826" as="geometry"/>
                </mxCell>
                <mxCell id="83" value="" style="shape=mxgraph.mockup.markup.redX;fillColor=#ff0000;html=1;shadow=0;strokeColor=none;labelBackgroundColor=none;labelBorderColor=none;fontColor=#FFFFFF;" parent="39" vertex="1">
                    <mxGeometry x="47.5" y="210" width="35" height="30" as="geometry"/>
                </mxCell>
                <mxCell id="53" style="edgeStyle=none;html=1;exitX=1;exitY=0.5;exitDx=0;exitDy=0;" parent="1" source="50" edge="1">
                    <mxGeometry relative="1" as="geometry">
                        <mxPoint x="600" y="175" as="targetPoint"/>
                    </mxGeometry>
                </mxCell>
                <mxCell id="50" value="Write&lt;br&gt;cmd&lt;br&gt;cgroups" style="rounded=0;whiteSpace=wrap;html=1;" parent="1" vertex="1">
                    <mxGeometry x="487.5" y="150" width="60" height="50" as="geometry"/>
                </mxCell>
                <mxCell id="51" value="Deploy&lt;br&gt;Helper" style="rounded=0;whiteSpace=wrap;html=1;" parent="1" vertex="1">
                    <mxGeometry x="260" y="110" width="60" height="50" as="geometry"/>
                </mxCell>
                <mxCell id="57" style="edgeStyle=none;html=1;exitX=1;exitY=0.5;exitDx=0;exitDy=0;entryX=0;entryY=0.5;entryDx=0;entryDy=0;" parent="1" source="55" target="50" edge="1">
                    <mxGeometry relative="1" as="geometry"/>
                </mxCell>
                <mxCell id="55" value="Create&lt;br&gt;Random&lt;br&gt;ID" style="rounded=0;whiteSpace=wrap;html=1;" parent="1" vertex="1">
                    <mxGeometry x="410" y="150" width="60" height="50" as="geometry"/>
                </mxCell>
                <mxCell id="56" style="edgeStyle=none;html=1;exitX=0.75;exitY=1;exitDx=0;exitDy=0;entryX=0.5;entryY=1;entryDx=0;entryDy=0;" parent="1" source="32" target="55" edge="1">
                    <mxGeometry relative="1" as="geometry"/>
                </mxCell>
                <mxCell id="61" value="" style="shape=rect;html=1;fillColor=#000000;verticalLabelPosition=bottom;verticalAlignment=top;rotation=90;" parent="1" vertex="1">
                    <mxGeometry x="600.5" y="232" width="4" height="80" as="geometry"/>
                </mxCell>
                <mxCell id="62" value="" style="edgeStyle=elbowEdgeStyle;html=1;elbow=horizontal;endArrow=none;rounded=0;startArrow=open;strokeWidth=3;startSize=12;" parent="1" source="61" edge="1">
                    <mxGeometry relative="1" as="geometry">
                        <mxPoint x="602.5" y="210" as="targetPoint"/>
                    </mxGeometry>
                </mxCell>
                <mxCell id="63" value="" style="edgeStyle=elbowEdgeStyle;html=1;elbow=vertical;endArrow=open;rounded=0;strokeWidth=3;endSize=12;" parent="1" edge="1">
                    <mxGeometry relative="1" as="geometry">
                        <mxPoint x="632.5" y="370" as="targetPoint"/>
                        <mxPoint x="603" y="270" as="sourcePoint"/>
                    </mxGeometry>
                </mxCell>
                <mxCell id="66" value="" style="edgeStyle=elbowEdgeStyle;html=1;elbow=vertical;endArrow=open;rounded=0;strokeWidth=3;endSize=12;" parent="1" edge="1">
                    <mxGeometry relative="1" as="geometry">
                        <mxPoint x="385" y="320" as="targetPoint"/>
                        <mxPoint x="603" y="270" as="sourcePoint"/>
                        <Array as="points">
                            <mxPoint x="490" y="320"/>
                        </Array>
                    </mxGeometry>
                </mxCell>
                <mxCell id="71" value="Return Helper Stream" style="edgeLabel;html=1;align=center;verticalAlign=middle;resizable=0;points=[];" parent="66" vertex="1" connectable="0">
                    <mxGeometry x="0.1418" y="-1" relative="1" as="geometry">
                        <mxPoint y="-9" as="offset"/>
                    </mxGeometry>
                </mxCell>
                <mxCell id="92" style="edgeStyle=none;html=1;entryX=1;entryY=0.75;entryDx=0;entryDy=0;fontColor=#FFFFFF;" parent="1" source="70" target="50" edge="1">
                    <mxGeometry relative="1" as="geometry"/>
                </mxCell>
                <mxCell id="70" value="Execute&lt;br&gt;Helper&lt;br&gt;/&lt;br&gt;Add to cgroups&lt;br&gt;/&lt;br&gt;Isolate&lt;br&gt;Subprocess&lt;br&gt;w/ syscalls" style="text;html=1;align=center;verticalAlign=middle;resizable=0;points=[];autosize=1;strokeColor=none;fillColor=none;" parent="1" vertex="1">
                    <mxGeometry x="594.5" y="130" width="100" height="120" as="geometry"/>
                </mxCell>
                <mxCell id="72" value="Running&lt;br&gt;Subprocess" style="shape=tapeData;whiteSpace=wrap;html=1;perimeter=ellipsePerimeter;" parent="1" vertex="1">
                    <mxGeometry x="590" y="370" width="80" height="80" as="geometry"/>
                </mxCell>
                <mxCell id="74" value="Stream Output to Helper" style="edgeStyle=elbowEdgeStyle;elbow=horizontal;endArrow=classic;html=1;exitX=1;exitY=0.5;exitDx=0;exitDy=0;" parent="1" source="72" target="70" edge="1">
                    <mxGeometry width="50" height="50" relative="1" as="geometry">
                        <mxPoint x="770" y="470" as="sourcePoint"/>
                        <mxPoint x="890" y="260" as="targetPoint"/>
                        <Array as="points">
                            <mxPoint x="720" y="340"/>
                        </Array>
                    </mxGeometry>
                </mxCell>
                <mxCell id="84" style="edgeStyle=none;html=1;dashed=1;fontColor=#FFFFFF;" parent="1" source="83" edge="1">
                    <mxGeometry relative="1" as="geometry">
                        <mxPoint x="120" y="425" as="targetPoint"/>
                    </mxGeometry>
                </mxCell>
                <mxCell id="85" style="edgeStyle=none;html=1;exitX=0.5;exitY=1;exitDx=0;exitDy=0;entryX=0.5;entryY=0;entryDx=0;entryDy=0;" parent="1" edge="1">
                    <mxGeometry relative="1" as="geometry">
                        <mxPoint x="286.3723404255318" y="440" as="sourcePoint"/>
                        <mxPoint x="300.627659574468" y="440" as="targetPoint"/>
                    </mxGeometry>
                </mxCell>
                <mxCell id="86" style="edgeStyle=none;html=1;exitX=1;exitY=0.5;exitDx=0;exitDy=0;fontColor=#FFFFFF;entryX=0.5;entryY=1;entryDx=0;entryDy=0;" parent="1" source="32" target="87" edge="1">
                    <mxGeometry relative="1" as="geometry">
                        <mxPoint x="368" y="140" as="targetPoint"/>
                    </mxGeometry>
                </mxCell>
                <mxCell id="88" style="edgeStyle=none;html=1;exitX=1;exitY=0.5;exitDx=0;exitDy=0;entryX=0.5;entryY=0;entryDx=0;entryDy=0;fontColor=#FFFFFF;" parent="1" source="87" target="50" edge="1">
                    <mxGeometry relative="1" as="geometry"/>
                </mxCell>
                <mxCell id="87" value="Write&lt;br&gt;Parent&lt;br&gt;cgroups" style="rounded=0;whiteSpace=wrap;html=1;" parent="1" vertex="1">
                    <mxGeometry x="337" y="80" width="60" height="50" as="geometry"/>
                </mxCell>
                <mxCell id="89" style="edgeStyle=none;html=1;exitX=1;exitY=0;exitDx=0;exitDy=0;entryX=0.75;entryY=1;entryDx=0;entryDy=0;fontColor=#FFFFFF;" parent="1" source="32" target="51" edge="1">
                    <mxGeometry relative="1" as="geometry"/>
                </mxCell>
                <mxCell id="93" value="Inherit Parent cgroups" style="text;html=1;align=center;verticalAlign=middle;resizable=0;points=[];autosize=1;strokeColor=none;fillColor=none;rotation=25;" parent="1" vertex="1">
                    <mxGeometry x="397" y="95" width="130" height="20" as="geometry"/>
                </mxCell>
            </root>
        </mxGraphModel>
    </diagram>
</mxfile>